<?xml version="1.0" encoding="UTF-8"?>
<svg id="Calque_1" xmlns="http://www.w3.org/2000/svg" version="1.1" viewBox="0 0 212.86 208.9">
  <!-- Generator: Adobe Illustrator 29.8.2, SVG Export Plug-In . SVG Version: 2.1.1 Build 3)  -->
  <defs>
    <style>
      .st0 {
        fill: #c5b39f;
      }

      .st1 {
        fill: #401f17;
      }
    </style>
  </defs>
  <path class="st1" d="M193.78,106.24c0,22.66-8.5,43.33-22.5,58.99-.51.57-1.02,1.13-1.54,1.69-4.85,5.16-10.32,9.75-16.28,13.62-.59.39-1.18.76-1.78,1.13-.11.07-.22.14-.34.2-13.44,8.23-29.24,12.96-46.15,12.96s-32.11-4.56-45.38-12.49c-.96-.57-1.91-1.16-2.85-1.77-5.75-3.74-11.04-8.13-15.77-13.07-.15-.16-.3-.31-.45-.47-14.97-15.86-24.15-37.25-24.15-60.79,0-40.81,27.6-75.18,65.16-85.46.41-.12.83-.22,1.25-.33,7.09-1.83,14.52-2.8,22.19-2.8.25,0,.49,0,.74,0,.73,0,1.46.02,2.19.04,47.57,1.55,85.66,40.6,85.66,88.55Z"/>
  <path class="st0" d="M109.34,21.06c-.44-1.05-.83-2.22-1.22-3.36-.73-.02-1.46-.04-2.18-.04h-.74c-7.66,0-15.1.97-22.19,2.8,3.41,8.16,6.82,16.33,10.31,24.46.97,2.25.95,4.14-.08,6.4-.29.61-.56,1.21-.84,1.82-.23.51-.45,1.01-.68,1.52-.75,1.62-1.48,3.25-2.23,4.89-.22.51-.45,1-.68,1.52-.74,1.62-1.48,3.24-2.22,4.87-.23.51-.46,1.01-.71,1.52-.73,1.63-1.47,3.25-2.21,4.89-.23.51-.46,1.01-.69,1.53-.74,1.62-1.48,3.24-2.22,4.87-.23.51-.46,1.01-.69,1.52-.74,1.62-1.48,3.25-2.22,4.89-.22.5-.45,1.01-.69,1.52-.73,1.63-1.47,3.25-2.21,4.89-.23.5-.46,1.01-.69,1.52-.74,1.63-1.48,3.25-2.22,4.89-.23.51-.46,1.01-.69,1.52-.74,1.63-1.48,3.26-2.21,4.89-.23.51-.46,1.01-.71,1.52-.73,1.63-1.47,3.26-2.21,4.89-.23.52-.46,1.03-.69,1.53-.74,1.63-1.48,3.25-2.22,4.89-.23.51-.46,1.01-.69,1.52-.74,1.63-1.48,3.26-2.21,4.89-.23.51-.46,1.01-.69,1.53-.74,1.62-1.48,3.25-2.22,4.89-.23.51-.45,1.01-.69,1.52-.73,1.63-1.48,3.26-2.21,4.89-.23.52-.46,1.03-.69,1.53-.74,1.62-1.48,3.25-2.22,4.89-.23.51-.46,1.01-.69,1.52-.74,1.63-1.47,3.26-2.21,4.89-.23.52-.46,1.03-.69,1.53-2.45,5.41-4.91,10.83-7.36,16.24.14.15.3.31.44.46,4.73,4.94,10.02,9.33,15.77,13.07.94.61,1.89,1.2,2.85,1.78.52-.04,1.04-.11,1.54-.18.42-.04.84-.11,1.26-.19,1.33-.21,2.64-.49,3.93-.81.41-.1.82-.21,1.21-.32,1.27-.36,2.51-.76,3.75-1.22.39-.14.77-.29,1.16-.44,1.21-.49,2.42-1.01,3.61-1.59.36-.18.74-.35,1.1-.54,1.17-.61,2.33-1.23,3.47-1.92.35-.2.71-.41,1.07-.64,1.12-.68,2.24-1.41,3.35-2.18.34-.23.68-.47,1.03-.72,1.1-.78,2.18-1.59,3.25-2.42.34-.26.67-.53,1-.81,1.07-.85,2.12-1.72,3.16-2.62.22-.18.44-.36.65-.55.11-.1.22-.19.34-.29,1.05-.89,2.08-1.81,3.12-2.71.33-.29.65-.57.98-.86,1.04-.92,2.07-1.84,3.11-2.75.33-.29.65-.56.98-.85.78-.67,1.57-1.35,2.36-2l.79-.66c.33-.26.67-.53,1-.79,1.07-.85,2.15-1.65,3.26-2.39.15-.11.32-.22.49-.32.19-.11.37-.23.57-.35.94-.57,1.87-1.09,2.83-1.5.22-.11.45-.2.68-.29.13-.06.26-.1.41-.14.25-.09.51-.15.77-.23.45-.12.92-.21,1.39-.28.77-.11,1.54-.19,2.33-.21.11-.01.23-.02.34-.02.39,0,.77,0,1.15.02.07-.01.13,0,.2,0,1.54.07,3.08.3,4.57.68.12.03.24.06.36.1.39.1.77.22,1.16.34.19.07.39.13.57.21,1.67.58,3.26,1.36,4.76,2.29.64.41,1.27.83,1.87,1.28.5.37.98.77,1.46,1.18,2.99,2.59,5.57,5.71,7.38,9.13h.01c3.42,8.11,5.89,13.92,6.83,16.09.13.31.52,1.17.89,1.97.11-.07.23-.13.34-.2.6-.36,1.19-.74,1.78-1.12,5.97-3.88,11.44-8.46,16.29-13.62.52-.56,1.04-1.12,1.54-1.7-20.64-48.06-41.28-96.12-61.94-144.17ZM132.39,147.86h0c-.18-.09-.35-.18-.53-.26-.19-.1-.37-.19-.56-.28-.2-.1-.39-.19-.58-.26-1.43-.64-2.92-1.17-4.44-1.57-.19-.06-.36-.1-.55-.14-.37-.09-.74-.18-1.11-.25-.12-.03-.24-.06-.36-.08-1.49-.29-3-.47-4.5-.54h-.01c-.06,0-.12-.01-.19,0-.13-.01-.26-.01-.4-.01-.24-.01-.5-.02-.76-.01-.11,0-.23,0-.34.01-.78,0-1.57.04-2.36.12-.47.06-.94.13-1.41.23-.26.06-.53.11-.79.18-.14.04-.29.08-.43.12-.31.08-.61.18-.92.28-.93.29-1.85.65-2.78,1.06-.39.17-.75.34-1.12.52-1.17.57-2.34,1.21-3.48,1.9-.35.21-.71.42-1.06.64-1.15.71-2.26,1.46-3.35,2.18-.35.23-.69.47-1.04.71-1.16.79-2.26,1.55-3.32,2.27-.14.1-.29.19-.42.28-.13.1-.28.19-.41.29-.03.02-.08.04-.11.07-.03.02-.07.06-.11.08-1.1.75-2.21,1.51-3.31,2.26h-.01c-.34.23-.69.46-1.04.69-1.11.74-2.24,1.47-3.35,2.18-.35.22-.72.44-1.07.65-1.12.71-2.26,1.38-3.42,2.03-.36.2-.73.4-1.09.6-1.15.62-2.33,1.21-3.52,1.76h-.01c-.18.09-.36.18-.55.26-.19.08-.37.17-.56.24-1.2.53-2.42,1.01-3.66,1.47h-.01c-.19.07-.37.13-.57.2-.2.07-.39.13-.58.2-.53.17-1.06.33-1.59.49-.74.21-1.49.41-2.24.57-.41.1-.82.19-1.22.26-1.35.24-2.7.42-4.06.52l-.66.03c-.22.01-.43.02-.65.02-1.46.03-2.9-.02-4.36-.19-.47-.06-.96-.12-1.42-.2-1.4-.23-2.79-.57-4.16-1.01-.21-.07-.41-.13-.61-.2.64-1.64,1.32-3.4,2.04-5.24.21-.54.42-1.09.64-1.65.66-1.7,1.35-3.44,2.05-5.26h0c.11-.28.21-.55.32-.83.11-.28.21-.54.33-.83h0c.66-1.71,1.33-3.47,2.04-5.26h0c.22-.55.43-1.1.65-1.67.66-1.72,1.35-3.47,2.05-5.25v-.02c.1-.26.21-.54.31-.82.11-.28.22-.54.33-.82h0c.67-1.74,1.36-3.5,2.05-5.27.21-.55.42-1.1.64-1.65.68-1.74,1.37-3.5,2.05-5.26.07-.17.12-.33.19-.5.12-.29.23-.58.34-.87.03-.09.08-.19.11-.28h0c.68-1.76,1.37-3.52,2.05-5.28.22-.55.43-1.09.65-1.63h0c.67-1.76,1.36-3.53,2.05-5.28.15-.4.31-.79.46-1.19.06-.15.12-.3.18-.45.68-1.76,1.37-3.51,2.05-5.26h0c.11-.28.21-.55.32-.83.11-.28.21-.55.33-.83.68-1.76,1.37-3.52,2.04-5.26.22-.55.43-1.1.65-1.65.68-1.78,1.38-3.52,2.05-5.26.21-.55.42-1.1.64-1.65.69-1.79,1.38-3.53,2.05-5.26.14-.36.29-.73.42-1.08.08-.19.15-.38.23-.56h0c.53-1.36,1.04-2.69,1.55-3.99.17-.43.33-.86.5-1.28.07-.19.14-.39.22-.57.03-.09.07-.17.1-.25.11-.26.21-.54.32-.81h0c.65-1.67,1.28-3.26,1.89-4.83.06-.14.11-.29.17-.43h0c.06-.15.11-.29.17-.43.03-.08.07-.17.1-.25.01-.06.03-.11.06-.15.08-.21.15-.4.23-.6.03-.08.07-.15.1-.22h0c.71-1.84,1.4-3.58,2.05-5.26h0c.06-.14.11-.28.15-.41l.17-.43c.11-.28.22-.55.32-.82.08-.2.15-.4.23-.6.65-1.65,1.26-3.22,1.82-4.65.12-.29.22-.56.33-.84s.21-.54.32-.81h0c.83-2.13,1.55-3.98,2.16-5.51,8.24,19.52,28.76,68.2,42.1,99.77-1.92-1.52-3.98-2.89-6.19-4.04Z"/>
  <g>
    <path class="st0" d="M135.66,152.87c-.2-.1-.39-.2-.59-.3-.43-.21-.85-.41-1.29-.61l-41.5-98.33c.25-.63.49-1.25.72-1.84l42.66,101.08Z"/>
    <path class="st0" d="M128.13,149.92c-.19-.08-.39-.14-.57-.21-.39-.12-.77-.24-1.16-.34l-1.8-4.28-33.48-79.31-1.86-4.42c.24-.62.47-1.24.72-1.84l1.86,4.42,34.43,81.55,1.86,4.43Z"/>
    <path class="st0" d="M121.27,148.59c-.37-.02-.76-.02-1.15-.02-.11,0-.23.01-.34.02l-1.74-4.12-29.94-70.93-1.87-4.43c.24-.62.49-1.24.73-1.84l1.86,4.41,30.72,72.81,1.73,4.11Z"/>
    <path class="st0" d="M115.3,149.3c-.14.04-.28.09-.41.14-.23.09-.46.18-.68.29-.07.01-.14.03-.21.06l-1.86-4.4-27.05-64.12-1.87-4.43c.24-.62.49-1.24.73-1.84l1.86,4.42,27.68,65.57,1.82,4.31Z"/>
    <path class="st0" d="M109.85,151.29c-.42.19-.84.38-1.25.58l-28.4-67.29c.24-.62.48-1.24.72-1.85l28.93,68.55Z"/>
    <path class="st0" d="M104.7,153.99c-.4.24-.8.48-1.19.72l-26.33-62.39c.24-.62.48-1.24.72-1.85l26.8,63.51Z"/>
    <path class="st0" d="M99.75,157.16c-.39.27-.78.53-1.16.79l-24.43-57.88c.24-.62.48-1.23.72-1.85l24.88,58.93Z"/>
    <path class="st0" d="M94.87,160.49c-.31.21-.62.42-.93.62-.08.06-.16.11-.24.17l-22.57-53.46c.24-.62.48-1.23.72-1.85l23.01,54.53Z"/>
    <path class="st0" d="M89.98,163.81c-.39.26-.78.52-1.17.78l-20.69-49.03c.24-.62.48-1.23.72-1.85l21.14,50.1Z"/>
    <path class="st0" d="M85.05,167.03c-.4.25-.79.5-1.19.74l-18.77-44.47-.09-.2h0c.24-.61.48-1.23.72-1.84h0l.08.2,19.24,45.57Z"/>
    <path class="st0" d="M80.03,170.03c-.41.22-.81.45-1.22.67l-16.73-39.64c.24-.62.48-1.23.72-1.85l17.23,40.83Z"/>
    <path class="st0" d="M74.86,172.68c-.42.2-.84.39-1.26.57l-14.54-34.45c.24-.61.48-1.23.72-1.85l15.08,35.73Z"/>
    <path class="st0" d="M69.5,174.89c-.43.16-.87.31-1.31.45l-12.15-28.79c.24-.61.48-1.23.72-1.85l12.74,30.19Z"/>
    <path class="st0" d="M63.91,176.53c-.46.1-.92.2-1.38.29l-9.5-22.52c.24-.61.48-1.23.72-1.85l10.16,24.08Z"/>
    <path class="st0" d="M57.99,177.4c-.49.03-.98.06-1.47.07l-6.51-15.41c.23-.61.48-1.23.72-1.85l7.26,17.2Z"/>
    <path class="st0" d="M51.64,177.25c-.53-.06-1.07-.14-1.6-.22l-3.05-7.23c.23-.61.48-1.22.72-1.85l3.93,9.3Z"/>
  </g>
</svg>