<?xml version="1.0" encoding="UTF-8"?>
<svg id="Calque_1" xmlns="http://www.w3.org/2000/svg" version="1.1" viewBox="0 0 411.86 208.9">
  <!-- Generator: Adobe Illustrator 29.8.2, SVG Export Plug-In . SVG Version: 2.1.1 Build 3)  -->
  <defs>
    <style>
      .st0 {
        fill: #401f17;
      }
    </style>
  </defs>
  <g>
    <path class="st0" d="M366.88,43.93v-.79c.03-3.61,2.92-6.41,6.87-6.37s6.8,2.89,6.77,6.47v.79c-.03,3.81-2.83,6.6-6.87,6.57-3.98-.03-6.8-2.86-6.77-6.67ZM379.46,44.06l.03-.85c0-3.02-2.37-5.39-5.75-5.42-3.35-.03-5.78,2.33-5.82,5.32v.85c-.03,3.22,2.3,5.59,5.72,5.62,3.38.03,5.78-2.3,5.82-5.52ZM371.21,47.15l.07-7.2h2.92c1.35.03,2.27.89,2.27,2.14-.03,1.12-.66,1.84-1.51,2.07.2.36,1.15,2.04,1.68,3.02h-1.15l-1.54-2.89h-1.68l-.03,2.86h-1.02ZM372.27,43.47h1.54c.89,0,1.64-.36,1.64-1.35,0-.85-.59-1.31-1.51-1.31l-1.64-.03-.03,2.69Z"/>
    <g id="_x30_jgiYT">
      <g>
        <path class="st0" d="M37.66,31.97c4.84.04,9.58.08,14.52.12-.12,13.75-.23,27.47-.35,41.36,14.52.12,28.84.24,43.38.37.12-13.77.23-27.49.35-41.32,4.98.04,9.75.08,14.63.12-.27,32.41-.55,64.71-.82,97.14-4.81-.04-9.59-.08-14.6-.12.15-17.65.3-35.31.45-53.06-14.53-.12-28.82-.24-43.27-.37-.15,17.7-.3,35.32-.45,53.06-4.94-.04-9.73-.08-14.66-.12.27-32.28.55-64.62.82-97.18Z"/>
        <path class="st0" d="M216.94,33.51c.5-.03.93-.09,1.35-.08,9.14.11,18.28,0,27.41.4,8.11.36,15.66,2.74,21.85,8.33,11.39,10.29,9.83,27.62-3.23,35.69-5.28,3.26-11.06,5.08-17.26,5.53-.82.06-1.63.22-2.45.34,0,.16-.01.31-.02.47,1.05.18,2.1.35,3.16.53,8.54,1.43,15.39,5.75,20.86,12.34,5.67,6.83,9.12,14.87,12.35,23.02,1.48,3.76,3.1,7.46,4.71,11.33-4.85-.04-9.82-.05-14.78-.18-.46-.01-1.13-.7-1.32-1.22-1.1-2.94-2.16-5.89-3.1-8.88-2.31-7.42-4.73-14.79-8.79-21.48-3.74-6.17-8.59-11.11-15.6-13.53-1.21-.42-2.47-.72-3.77-1.09,0-.62.01-1.21.02-1.92,7.54-1.32,13.79-4.65,17.66-11.49,3.38-5.97,4.07-12.39,2.43-18.97-3.19-12.8-13.48-17.83-26.93-16.53-.27,31.51-.53,63.05-.8,94.71-4.95-.04-9.67-.08-14.54-.12.27-32.3.55-64.64.82-97.18Z"/>
        <path class="st0" d="M301.53,34.32c12.57.14,25.13-1.15,37.48,1.71,5.28,1.22,10.01,3.64,14.28,7.07,12.86,10.33,13.03,33.03-2.5,43.71-7.59,5.21-16.08,6.99-25.14,6.27-3.29-.26-6.56-.83-10.03-1.29-.06,6.67-.11,13.32-.17,19.96-.06,6.58-.11,13.15-.17,19.82-4.95-.04-9.68-.08-14.58-.12.27-32.32.55-64.65.82-97.12ZM316.08,36.68c0,.9-.01,1.57-.02,2.23-.06,6.66-.11,13.32-.17,19.97-.08,9.43-.18,18.86-.2,28.3,0,.69.46,1.84.95,1.99,8.02,2.54,16.88,1.23,23.01-5.73,6.15-6.98,7.61-15.45,6.79-24.39-.41-4.51-1.81-8.78-4.57-12.51-6.43-8.69-15.57-10.25-25.8-9.87Z"/>
        <path class="st0" d="M203.53,128.97c-12.62-30.09-25.24-60.18-37.87-90.26-.78-1.87-1.19-4.39-2.62-5.34-1.44-.96-3.93-.34-5.96-.38-2.75-.04-5.49-.05-8.45-.08.31.88.49,1.46.72,2.02,2.35,5.76,4.68,11.52,7.09,17.25.54,1.29.52,2.35-.08,3.64-.16.34-.32.69-.48,1.03-.13.29-.27.58-.4.86-.43.92-.85,1.84-1.28,2.76-.13.29-.27.58-.4.86-.43.92-.86,1.84-1.28,2.76-.13.29-.27.58-.4.86-.43.92-.85,1.84-1.28,2.76-.13.29-.27.58-.4.87-.43.92-.85,1.84-1.28,2.76-.13.29-.27.58-.4.87-.43.92-.85,1.84-1.28,2.76-.13.29-.27.58-.4.87-.43.92-.85,1.84-1.28,2.76-.13.29-.27.58-.4.86-.43.92-.86,1.84-1.28,2.76-.13.29-.27.58-.4.87-.43.92-.86,1.84-1.28,2.76-.13.29-.27.58-.4.87-.43.92-.85,1.84-1.28,2.76-.13.29-.27.58-.4.87-.43.92-.85,1.84-1.28,2.76-.13.29-.27.58-.4.87-.43.92-.85,1.84-1.28,2.76-.13.29-.27.58-.4.87-.43.92-.85,1.84-1.28,2.76-.13.29-.27.58-.4.87-.43.92-.85,1.84-1.28,2.76-.13.29-.27.58-.4.87-.43.92-.85,1.84-1.28,2.76-.13.29-.27.58-.4.87-.43.92-.85,1.84-1.28,2.76-.13.29-.27.58-.4.87-2.15,4.64-4.3,9.28-6.45,13.92-.42.9-.82,1.81-1.25,2.77h0s-.58,1.28-.58,1.28l12.73.11c.99,0,1.97-.08,2.92-.19.24-.03.48-.06.72-.1.76-.11,1.5-.26,2.24-.44.23-.06.46-.11.69-.17.72-.2,1.44-.42,2.14-.68.22-.08.44-.16.66-.25.69-.27,1.38-.56,2.05-.88.21-.1.42-.2.63-.31.67-.33,1.33-.69,1.98-1.07.2-.12.41-.24.61-.36.65-.39,1.28-.8,1.91-1.22.2-.13.39-.27.59-.41.62-.43,1.24-.89,1.86-1.36.19-.15.38-.3.57-.44.61-.48,1.21-.97,1.81-1.48.12-.1.25-.21.37-.31.06-.05.13-.11.19-.16.6-.5,1.2-1.01,1.79-1.53.19-.16.37-.32.56-.48.59-.52,1.19-1.03,1.78-1.54.19-.16.37-.32.56-.48.45-.38.89-.76,1.35-1.13.15-.12.3-.25.46-.37.19-.15.38-.3.57-.45.61-.48,1.23-.93,1.87-1.34.09-.06.18-.12.28-.18.11-.07.22-.13.33-.2.66-.4,1.32-.75,2.01-1,.22-.08.44-.15.67-.21.26-.07.52-.12.79-.15.51-.07,1.01-.11,1.52-.12.26,0,.51,0,.76.02.87.04,1.74.18,2.59.41.29.08.58.16.87.26,1.05.36,2.07.84,3.02,1.45.36.23.72.48,1.06.74.28.21.56.44.82.67,1.68,1.49,3.14,3.27,4.15,5.22,0,0,0,0,0,0,1.91,4.61,3.28,7.93,3.8,9.17.26.61.96,1.46,1.48,1.48,4.74.15,9.5.15,14.49.19-.29-.8-.46-1.33-.67-1.83ZM178.14,110.85c-.1-.05-.2-.1-.3-.15-.21-.11-.43-.21-.65-.31-.91-.42-1.86-.75-2.83-1-.28-.07-.56-.13-.84-.19-.84-.17-1.7-.28-2.55-.33-.25-.01-.51-.02-.76-.02-.51,0-1.03.02-1.54.06-.27.03-.54.07-.81.13-.23.05-.46.1-.69.16-.71.19-1.41.44-2.11.74-.21.09-.43.19-.64.29-.67.32-1.33.68-1.98,1.06-.2.12-.41.24-.61.36-.65.4-1.29.81-1.91,1.22-.2.13-.4.27-.59.4-.66.44-1.29.87-1.9,1.27-.16.11-.32.21-.47.31-.04.03-.08.06-.12.08-.63.42-1.26.85-1.9,1.27-.2.13-.4.26-.6.39-.63.42-1.27.82-1.91,1.22-.2.12-.4.25-.61.37-.64.39-1.29.77-1.95,1.13-.21.11-.41.22-.62.33-.66.35-1.33.68-2.01.99-.21.1-.43.19-.64.28-.68.29-1.38.56-2.09.81-.22.08-.44.15-.67.22-.3.1-.6.19-.9.27-.42.12-.85.22-1.27.32-.23.05-.47.1-.7.14-.76.14-1.53.23-2.31.27-.25.01-.5.02-.75.03-.82.01-1.65-.03-2.47-.13-.27-.03-.54-.07-.81-.12-.79-.14-1.58-.33-2.36-.59-.11-.04-.23-.07-.34-.11.37-.93.77-1.92,1.18-2.97.12-.31.25-.62.37-.94.38-.96.78-1.95,1.19-2.98.12-.31.25-.62.37-.94.39-.97.78-1.96,1.19-2.98.12-.31.25-.62.37-.93.39-.97.78-1.97,1.19-2.98.12-.31.25-.62.37-.94.39-.98.79-1.97,1.19-2.98.12-.31.25-.62.37-.93.39-.98.79-1.98,1.19-2.98.12-.31.25-.62.37-.94.4-.99.79-1.98,1.19-2.98.13-.31.25-.62.37-.93.4-.99.79-1.99,1.19-2.98.12-.31.25-.62.37-.93.4-1,.79-1.99,1.19-2.98.12-.31.25-.62.37-.93.4-1,.8-1.99,1.19-2.98.12-.31.25-.62.37-.93.4-1,.8-2,1.19-2.98.12-.31.25-.62.37-.93.4-1.01.8-2,1.19-2.98.12-.31.25-.62.37-.93.41-1.01.8-2.01,1.19-2.98.12-.31.25-.62.37-.93.41-1.02.81-2.02,1.19-2.98.13-.32.25-.63.37-.93.42-1.04.81-2.03,1.19-2.98.13-.32.25-.63.37-.93.43-1.06.82-2.06,1.19-2.98.13-.32.25-.63.37-.93.48-1.2.9-2.25,1.25-3.12,4.59,11.13,16.01,38.87,23.44,56.87-1.08-.88-2.24-1.66-3.49-2.32Z"/>
        <g>
          <path class="st0" d="M178.14,110.85c-.1-.05-.2-.1-.3-.15-.21-.11-.43-.21-.65-.31l-20.62-50.04c.13-.32.25-.63.37-.93l21.2,51.43Z"/>
          <path class="st0" d="M174.36,109.39c-.28-.07-.56-.13-.84-.19l-18.52-44.94c.13-.32.25-.63.37-.93l18.98,46.06Z"/>
          <path class="st0" d="M170.97,108.87c-.25-.01-.51-.02-.76-.02l-16.77-40.68c.13-.32.25-.63.37-.93l17.16,41.64Z"/>
          <path class="st0" d="M167.86,109.03c-.23.05-.46.1-.69.16l-15.3-37.12c.12-.31.25-.62.37-.93l15.61,37.89Z"/>
          <path class="st0" d="M165.06,109.94c-.21.09-.43.19-.64.29l-14.11-34.24c.12-.31.25-.62.37-.93l14.38,34.88Z"/>
          <path class="st0" d="M162.44,111.28c-.2.12-.41.24-.61.36l-13.08-31.74c.12-.31.25-.62.37-.93l13.32,32.32Z"/>
          <path class="st0" d="M159.91,112.87c-.2.13-.4.27-.59.4l-12.14-29.45c.12-.31.25-.62.37-.93l12.36,29.99Z"/>
          <path class="st0" d="M157.42,114.54c-.16.11-.32.21-.47.31-.04.03-.08.06-.12.08l-11.21-27.2c.12-.31.25-.62.37-.93l11.43,27.75Z"/>
          <path class="st0" d="M154.93,116.2c-.2.13-.4.26-.6.39l-10.28-24.95c.12-.31.25-.62.37-.93l10.51,25.49Z"/>
          <path class="st0" d="M152.42,117.81c-.2.12-.4.25-.61.37l-9.33-22.63-.04-.1h0c.12-.31.25-.62.38-.93h0s.04.1.04.1l9.56,23.19Z"/>
          <path class="st0" d="M149.86,119.31c-.21.11-.41.22-.62.33l-8.31-20.17c.12-.31.25-.62.37-.94l8.56,20.78Z"/>
          <path class="st0" d="M147.23,120.64c-.21.1-.43.19-.64.28l-7.23-17.53c.12-.31.25-.62.37-.93l7.49,18.18Z"/>
          <path class="st0" d="M144.5,121.73c-.22.08-.44.15-.67.22l-6.04-14.65c.12-.31.25-.62.37-.94l6.33,15.36Z"/>
          <path class="st0" d="M141.66,122.54c-.23.05-.47.1-.7.14l-4.72-11.46c.12-.31.25-.62.37-.93l5.05,12.25Z"/>
          <path class="st0" d="M138.65,122.95c-.25.01-.5.02-.75.03l-3.23-7.84c.12-.31.25-.62.37-.94l3.61,8.75Z"/>
          <path class="st0" d="M135.43,122.85c-.27-.03-.54-.07-.81-.12l-1.51-3.68c.12-.31.25-.62.37-.94l1.95,4.73Z"/>
        </g>
      </g>
    </g>
  </g>
  <g>
    <path class="st0" d="M39.13,159.99v12.39c0,1.15.13,2.14.39,2.96s.66,1.48,1.15,2c.53.49,1.15.89,1.87,1.12s1.54.33,2.46.33,1.77-.1,2.5-.33,1.35-.62,1.84-1.12c.49-.53.89-1.18,1.15-2s.39-1.81.39-2.96v-12.39h1.91v12.82c0,1.02-.13,2-.43,2.92s-.76,1.74-1.38,2.43-1.45,1.22-2.4,1.64c-.99.39-2.2.59-3.58.59s-2.56-.2-3.55-.59c-.99-.43-1.77-.95-2.43-1.64-.62-.69-1.08-1.51-1.35-2.43-.3-.92-.46-1.91-.46-2.92v-12.82h1.91Z"/>
    <path class="st0" d="M58.02,165.55v2.5h.07c.33-.89.92-1.61,1.77-2.14.89-.53,1.81-.79,2.86-.79.99,0,1.84.13,2.53.39s1.22.62,1.64,1.12c.39.46.69,1.05.85,1.74s.26,1.48.26,2.33v9.3h-1.77v-9.04c0-.59-.07-1.18-.16-1.71s-.3-.99-.59-1.38c-.26-.39-.66-.72-1.15-.95-.46-.2-1.05-.33-1.77-.33s-1.35.13-1.87.39c-.56.23-1.02.59-1.41,1.02-.39.46-.69.99-.89,1.58-.23.62-.33,1.28-.36,1.97v8.45h-1.77v-14.46h1.77Z"/>
    <path class="st0" d="M72.68,175.24c.16.66.46,1.28.85,1.81.39.56.89,1.02,1.48,1.35.59.36,1.31.56,2.17.56,1.28,0,2.3-.36,3.02-1.02.72-.69,1.22-1.58,1.51-2.69h1.77c-.39,1.64-1.08,2.92-2.07,3.81s-2.4,1.35-4.24,1.35c-1.15,0-2.14-.2-2.96-.59-.85-.43-1.51-.95-2.04-1.68-.53-.69-.92-1.51-1.15-2.43-.26-.92-.39-1.91-.39-2.92,0-.95.13-1.91.39-2.79.23-.92.62-1.74,1.15-2.46s1.18-1.31,2.04-1.74c.82-.43,1.81-.66,2.96-.66s2.14.23,2.96.69c.82.49,1.51,1.08,2,1.84.53.76.89,1.64,1.12,2.63.23.95.33,1.97.26,2.96h-11.11c0,.66.07,1.31.26,2ZM81.42,169.82c-.2-.59-.53-1.15-.92-1.64-.39-.46-.85-.85-1.41-1.15-.56-.26-1.22-.43-1.91-.43s-1.38.16-1.94.43c-.56.3-1.05.69-1.45,1.15-.39.49-.69,1.05-.92,1.68s-.39,1.25-.46,1.91h9.37c-.03-.66-.13-1.31-.36-1.94Z"/>
    <path class="st0" d="M107.87,159.99v1.61h-11.93v7.23h11.17v1.64h-11.17v7.92h12.06v1.61h-13.97v-20.01h13.83ZM98.67,158.38l2.96-3.94h2.17l-3.68,3.94h-1.45Z"/>
    <path class="st0" d="M112.14,159.99v20.01h-1.77v-20.01h1.77Z"/>
    <path class="st0" d="M116.81,175.24c.16.66.46,1.28.85,1.81.39.56.89,1.02,1.48,1.35.59.36,1.31.56,2.17.56,1.28,0,2.3-.36,3.02-1.02.72-.69,1.22-1.58,1.51-2.69h1.77c-.39,1.64-1.08,2.92-2.07,3.81s-2.4,1.35-4.24,1.35c-1.15,0-2.14-.2-2.96-.59-.85-.43-1.51-.95-2.04-1.68-.53-.69-.92-1.51-1.15-2.43-.26-.92-.39-1.91-.39-2.92,0-.95.13-1.91.39-2.79.23-.92.62-1.74,1.15-2.46s1.18-1.31,2.04-1.74c.82-.43,1.81-.66,2.96-.66s2.14.23,2.96.69c.82.49,1.51,1.08,2,1.84.53.76.89,1.64,1.12,2.63.23.95.33,1.97.26,2.96h-11.11c0,.66.07,1.31.26,2ZM125.55,169.82c-.2-.59-.53-1.15-.92-1.64-.39-.46-.85-.85-1.41-1.15-.56-.26-1.22-.43-1.91-.43s-1.38.16-1.94.43c-.56.3-1.05.69-1.45,1.15-.39.49-.69,1.05-.92,1.68s-.39,1.25-.46,1.91h9.37c-.03-.66-.13-1.31-.36-1.94ZM119.44,163.51l2.92-3.94h2.2l-3.71,3.94h-1.41Z"/>
    <path class="st0" d="M141.95,181.72c-.26.85-.62,1.58-1.12,2.2-.53.59-1.18,1.05-1.97,1.35-.82.33-1.81.49-2.99.49-.72,0-1.45-.1-2.14-.26s-1.31-.43-1.87-.79c-.56-.33-.99-.79-1.38-1.35-.36-.56-.56-1.22-.62-1.97h1.77c.1.53.26.99.56,1.35.26.36.59.66.95.89.39.23.82.39,1.28.49.49.1.95.16,1.45.16,1.64,0,2.83-.49,3.55-1.41s1.08-2.27,1.08-4.04v-1.97h-.03c-.43.92-1.02,1.64-1.81,2.17-.79.56-1.74.82-2.79.82-1.15,0-2.17-.2-2.99-.59-.82-.36-1.48-.89-2-1.58-.56-.66-.95-1.45-1.18-2.37-.23-.89-.36-1.87-.36-2.89s.13-1.94.43-2.83.72-1.68,1.28-2.33c.53-.66,1.22-1.18,2.04-1.58.82-.36,1.74-.56,2.79-.56.53,0,1.05.07,1.51.23.49.13.92.36,1.31.62s.76.59,1.05.95c.3.33.56.72.72,1.12h.03v-2.5h1.77v13.28c0,1.08-.1,2.04-.33,2.89ZM137.87,177.87c.59-.33,1.08-.76,1.48-1.31.39-.53.69-1.12.85-1.81.2-.69.3-1.41.3-2.14s-.07-1.41-.23-2.14-.46-1.35-.82-1.94-.85-1.05-1.45-1.41c-.59-.33-1.31-.53-2.14-.53s-1.58.16-2.17.53c-.59.33-1.08.79-1.48,1.35s-.69,1.22-.85,1.94c-.2.72-.26,1.45-.26,2.2s.1,1.45.26,2.14c.2.69.49,1.28.89,1.81.39.56.89.99,1.48,1.31s1.31.49,2.14.49c.76,0,1.45-.16,2-.49Z"/>
    <path class="st0" d="M146.02,167.78c.3-.62.72-1.12,1.22-1.51.53-.39,1.12-.69,1.81-.89.69-.16,1.48-.26,2.3-.26.66,0,1.28.07,1.91.2.66.1,1.22.33,1.71.66.53.36.92.82,1.25,1.41.33.62.46,1.41.46,2.4v7.66c0,.72.36,1.08,1.05,1.08.2,0,.39-.03.56-.13v1.51c-.2.03-.39.07-.56.07-.13.03-.33.03-.59.03-.46,0-.79-.07-1.08-.2-.26-.1-.46-.3-.62-.49-.13-.23-.23-.49-.3-.82-.03-.3-.07-.62-.07-1.02h-.07c-.3.46-.62.89-.95,1.25s-.69.69-1.08.92c-.43.23-.89.43-1.38.56-.53.13-1.12.2-1.84.2s-1.31-.07-1.91-.23-1.08-.43-1.54-.76c-.43-.36-.79-.79-1.02-1.31-.26-.56-.39-1.18-.39-1.91,0-1.02.23-1.81.69-2.37.43-.56,1.02-1.02,1.77-1.31.72-.3,1.58-.49,2.5-.62s1.87-.23,2.83-.36c.36-.03.69-.07.95-.13.3-.07.53-.16.72-.3s.33-.33.43-.56c.1-.26.16-.56.16-.95,0-.62-.1-1.12-.3-1.48-.2-.39-.46-.69-.82-.92-.33-.23-.76-.36-1.22-.46s-.95-.13-1.45-.13c-1.15,0-2.04.26-2.76.79-.72.56-1.08,1.41-1.12,2.6h-1.77c.07-.85.23-1.58.53-2.2ZM154.86,172.09c-.1.23-.33.36-.66.46-.3.1-.59.16-.82.2-.76.13-1.51.26-2.33.36-.79.1-1.51.26-2.17.46s-1.18.49-1.61.89c-.43.36-.62.92-.62,1.64,0,.43.1.82.26,1.18.2.33.43.62.72.89s.66.46,1.02.59c.39.13.82.2,1.22.2.69,0,1.31-.13,1.94-.33s1.15-.49,1.61-.89.82-.89,1.08-1.45c.3-.56.43-1.18.43-1.91v-2.3h-.07Z"/>
    <path class="st0" d="M161.93,165.55v2.5h.07c.33-.89.92-1.61,1.77-2.14.89-.53,1.81-.79,2.86-.79.99,0,1.84.13,2.53.39s1.22.62,1.64,1.12c.39.46.69,1.05.85,1.74s.26,1.48.26,2.33v9.3h-1.77v-9.04c0-.59-.07-1.18-.16-1.71s-.3-.99-.59-1.38c-.26-.39-.66-.72-1.15-.95-.46-.2-1.05-.33-1.77-.33s-1.35.13-1.87.39c-.56.23-1.02.59-1.41,1.02-.39.46-.69.99-.89,1.58-.23.62-.33,1.28-.36,1.97v8.45h-1.77v-14.46h1.77Z"/>
    <path class="st0" d="M184.14,167.52c-.66-.59-1.58-.92-2.76-.92-.82,0-1.58.2-2.2.53-.66.36-1.18.82-1.58,1.41-.43.59-.76,1.25-.95,1.97-.23.76-.33,1.51-.33,2.27s.1,1.51.33,2.27c.2.72.53,1.38.95,1.97.39.56.92,1.05,1.58,1.38.62.36,1.38.56,2.2.56.56,0,1.05-.13,1.54-.33s.92-.49,1.28-.85c.39-.36.69-.79.95-1.31.23-.49.36-1.05.43-1.64h1.77c-.23,1.77-.89,3.12-1.94,4.11s-2.4,1.48-4.04,1.48c-1.08,0-2.07-.2-2.92-.59-.85-.43-1.58-.95-2.14-1.64-.59-.69-1.02-1.51-1.31-2.43s-.46-1.91-.46-2.96.16-2.04.46-2.96.72-1.74,1.31-2.43c.56-.69,1.28-1.25,2.14-1.64.85-.43,1.84-.62,2.92-.62,1.54,0,2.86.39,3.94,1.22,1.08.85,1.71,2.07,1.94,3.75h-1.77c-.26-1.08-.69-1.94-1.35-2.56Z"/>
    <path class="st0" d="M191.11,175.24c.16.66.46,1.28.85,1.81.39.56.89,1.02,1.48,1.35.59.36,1.31.56,2.17.56,1.28,0,2.3-.36,3.02-1.02.72-.69,1.22-1.58,1.51-2.69h1.77c-.39,1.64-1.08,2.92-2.07,3.81s-2.4,1.35-4.24,1.35c-1.15,0-2.14-.2-2.96-.59-.85-.43-1.51-.95-2.04-1.68-.53-.69-.92-1.51-1.15-2.43-.26-.92-.39-1.91-.39-2.92,0-.95.13-1.91.39-2.79.23-.92.62-1.74,1.15-2.46s1.18-1.31,2.04-1.74c.82-.43,1.81-.66,2.96-.66s2.14.23,2.96.69c.82.49,1.51,1.08,2,1.84.53.76.89,1.64,1.12,2.63.23.95.33,1.97.26,2.96h-11.11c0,.66.07,1.31.26,2ZM199.85,169.82c-.2-.59-.53-1.15-.92-1.64-.39-.46-.85-.85-1.41-1.15-.56-.26-1.22-.43-1.91-.43s-1.38.16-1.94.43c-.56.3-1.05.69-1.45,1.15-.39.49-.69,1.05-.92,1.68s-.39,1.25-.46,1.91h9.37c-.03-.66-.13-1.31-.36-1.94Z"/>
    <path class="st0" d="M226.04,178.96c-1.35.95-3.09,1.45-5.16,1.45-1.58,0-2.96-.3-4.14-.85s-2.17-1.35-2.96-2.3-1.38-2.04-1.77-3.29-.59-2.56-.59-3.98.2-2.69.59-3.94.99-2.37,1.77-3.32,1.77-1.74,2.96-2.3,2.56-.85,4.14-.85,2.92.3,4.11.85,2.17,1.35,2.96,2.3c.76.95,1.35,2.07,1.74,3.32s.59,2.56.59,3.94c0,1.58-.23,3.06-.76,4.44-.49,1.38-1.25,2.53-2.27,3.52l2.86,2.17-.95,1.15-3.12-2.3ZM227.78,173.76c.39-1.22.59-2.46.59-3.78,0-1.08-.13-2.17-.43-3.22s-.76-1.97-1.35-2.79c-.59-.85-1.38-1.51-2.33-2-.95-.53-2.07-.76-3.38-.76s-2.5.23-3.45.76c-.95.49-1.71,1.15-2.33,2-.59.82-1.05,1.74-1.35,2.79s-.43,2.14-.43,3.22.13,2.17.43,3.22.76,2,1.35,2.83c.62.85,1.38,1.51,2.33,2,.95.53,2.1.76,3.45.76s2.63-.33,3.68-.99l-2.63-1.97.99-1.22,2.92,2.23c.89-.85,1.54-1.87,1.94-3.09Z"/>
    <path class="st0" d="M243.03,180.01v-2.6h-.03c-.49.95-1.15,1.71-2.04,2.2-.89.53-1.87.79-2.96.79-.92,0-1.71-.13-2.33-.39-.66-.23-1.18-.59-1.58-1.05-.39-.49-.69-1.05-.89-1.71-.2-.69-.3-1.45-.3-2.3v-9.4h1.77v9.4c.03,1.31.33,2.3.92,2.99.56.66,1.54,1.02,2.96,1.02.76,0,1.41-.16,1.97-.49.53-.33.99-.79,1.35-1.31.33-.56.59-1.15.76-1.87.2-.69.26-1.41.26-2.14v-7.59h1.77v14.46h-1.64Z"/>
    <path class="st0" d="M249.79,159.99v2.83h-1.77v-2.83h1.77ZM249.79,165.55v14.46h-1.77v-14.46h1.77Z"/>
    <path class="st0" d="M270.46,159.99c.82,0,1.61.1,2.37.3.72.2,1.38.53,1.94.95.53.43.99.95,1.31,1.61s.49,1.45.49,2.37c0,1.25-.33,2.37-.99,3.29-.66.95-1.64,1.54-2.92,1.81v.07c.66.07,1.18.26,1.61.49.46.26.79.59,1.05.99.3.39.49.82.59,1.35.13.53.2,1.08.26,1.68,0,.33.03.76.03,1.22.03.49.07.99.13,1.48.03.49.13.99.26,1.41s.3.79.49,1.02h-2.1c-.13-.2-.2-.43-.26-.69s-.13-.56-.16-.82c0-.3-.03-.59-.07-.89,0-.26-.03-.49-.03-.72-.07-.69-.1-1.41-.2-2.1s-.26-1.31-.53-1.87-.66-1.02-1.18-1.35-1.22-.49-2.1-.43h-7.26v8.87h-1.91v-20.01h9.17ZM270.33,169.49c.59,0,1.15-.1,1.64-.26.53-.16.99-.43,1.38-.79.39-.33.72-.72.95-1.22.23-.46.36-1.02.36-1.64,0-1.22-.36-2.2-1.08-2.89-.69-.72-1.77-1.08-3.25-1.08h-7.13v7.89h7.13Z"/>
    <path class="st0" d="M280.98,175.24c.16.66.46,1.28.85,1.81.39.56.89,1.02,1.48,1.35.59.36,1.31.56,2.17.56,1.28,0,2.3-.36,3.02-1.02.72-.69,1.22-1.58,1.51-2.69h1.77c-.39,1.64-1.08,2.92-2.07,3.81s-2.4,1.35-4.24,1.35c-1.15,0-2.14-.2-2.96-.59-.85-.43-1.51-.95-2.04-1.68-.53-.69-.92-1.51-1.15-2.43-.26-.92-.39-1.91-.39-2.92,0-.95.13-1.91.39-2.79.23-.92.62-1.74,1.15-2.46s1.18-1.31,2.04-1.74c.82-.43,1.81-.66,2.96-.66s2.14.23,2.96.69c.82.49,1.51,1.08,2,1.84.53.76.89,1.64,1.12,2.63.23.95.33,1.97.26,2.96h-11.11c0,.66.07,1.31.26,2ZM289.72,169.82c-.2-.59-.53-1.15-.92-1.64-.39-.46-.85-.85-1.41-1.15-.56-.26-1.22-.43-1.91-.43s-1.38.16-1.94.43c-.56.3-1.05.69-1.45,1.15-.39.49-.69,1.05-.92,1.68s-.39,1.25-.46,1.91h9.37c-.03-.66-.13-1.31-.36-1.94ZM283.61,163.51l2.92-3.94h2.2l-3.71,3.94h-1.41Z"/>
    <path class="st0" d="M302.57,168.34c-.23-.39-.49-.72-.85-.99-.33-.26-.72-.46-1.18-.56-.43-.13-.92-.2-1.41-.2-.39,0-.79.03-1.22.13-.39.1-.76.23-1.08.43-.36.2-.62.46-.82.76-.2.33-.3.72-.3,1.18,0,.39.1.72.3.99.16.3.43.53.72.69.3.2.62.36.99.46.36.13.69.23.99.3l2.37.56c.49.07.99.2,1.48.39s.95.46,1.31.76c.39.33.69.72.95,1.18.23.46.36,1.02.36,1.68,0,.76-.16,1.45-.53,2-.36.53-.82.99-1.38,1.35-.53.33-1.15.59-1.84.72-.69.16-1.38.23-2.07.23-1.68,0-3.06-.39-4.14-1.22-1.05-.79-1.64-2.07-1.81-3.84h1.77c.07,1.18.53,2.07,1.31,2.69.79.59,1.77.92,2.96.92.43,0,.85-.07,1.31-.16s.89-.23,1.28-.46.72-.53.99-.85c.23-.36.36-.79.36-1.28,0-.43-.1-.79-.26-1.08s-.43-.53-.72-.72-.62-.36-1.02-.49c-.36-.13-.76-.23-1.15-.33l-2.27-.53c-.59-.13-1.12-.3-1.61-.49s-.92-.46-1.28-.76c-.36-.26-.66-.62-.85-1.05s-.3-.95-.3-1.54c0-.76.16-1.38.49-1.87.33-.53.76-.95,1.28-1.28.49-.33,1.08-.56,1.74-.69.66-.16,1.28-.23,1.91-.23.76,0,1.41.1,2.04.26.62.2,1.18.49,1.68.89.46.39.85.89,1.12,1.45.3.59.43,1.28.49,2.07h-1.77c-.03-.56-.13-1.02-.33-1.45Z"/>
    <path class="st0" d="M316.73,165.75c.85.39,1.58.95,2.17,1.64.56.69,1.02,1.51,1.31,2.43s.43,1.91.43,2.96-.13,2.04-.43,2.96-.76,1.74-1.31,2.43c-.59.69-1.31,1.22-2.17,1.64-.85.39-1.81.59-2.92.59s-2.07-.2-2.92-.59c-.85-.43-1.58-.95-2.14-1.64-.59-.69-1.02-1.51-1.31-2.43s-.46-1.91-.46-2.96.16-2.04.46-2.96.72-1.74,1.31-2.43c.56-.69,1.28-1.25,2.14-1.64.85-.43,1.84-.62,2.92-.62s2.07.2,2.92.62ZM311.61,167.13c-.66.36-1.18.82-1.58,1.41-.43.59-.76,1.25-.95,1.97-.23.76-.33,1.51-.33,2.27s.1,1.51.33,2.27c.2.72.53,1.38.95,1.97.39.56.92,1.05,1.58,1.38.62.36,1.38.56,2.2.56s1.58-.2,2.23-.56c.62-.33,1.15-.82,1.58-1.38.43-.59.72-1.25.95-1.97.2-.76.33-1.51.33-2.27s-.13-1.51-.33-2.27c-.23-.72-.53-1.38-.95-1.97s-.95-1.05-1.58-1.41c-.66-.33-1.38-.53-2.23-.53s-1.58.2-2.2.53Z"/>
    <path class="st0" d="M325.01,165.55v2.5h.07c.33-.89.92-1.61,1.77-2.14.89-.53,1.81-.79,2.86-.79.99,0,1.84.13,2.53.39s1.22.62,1.64,1.12c.39.46.69,1.05.85,1.74s.26,1.48.26,2.33v9.3h-1.77v-9.04c0-.59-.07-1.18-.16-1.71s-.3-.99-.59-1.38c-.26-.39-.66-.72-1.15-.95-.46-.2-1.05-.33-1.77-.33s-1.35.13-1.87.39c-.56.23-1.02.59-1.41,1.02-.39.46-.69.99-.89,1.58-.23.62-.33,1.28-.36,1.97v8.45h-1.77v-14.46h1.77Z"/>
    <path class="st0" d="M340.1,165.55v2.5h.07c.33-.89.92-1.61,1.77-2.14.89-.53,1.81-.79,2.86-.79.99,0,1.84.13,2.53.39s1.22.62,1.64,1.12c.39.46.69,1.05.85,1.74s.26,1.48.26,2.33v9.3h-1.77v-9.04c0-.59-.07-1.18-.16-1.71s-.3-.99-.59-1.38c-.26-.39-.66-.72-1.15-.95-.46-.2-1.05-.33-1.77-.33s-1.35.13-1.87.39c-.56.23-1.02.59-1.41,1.02-.39.46-.69.99-.89,1.58-.23.62-.33,1.28-.36,1.97v8.45h-1.77v-14.46h1.77Z"/>
    <path class="st0" d="M354.72,175.24c.16.66.46,1.28.85,1.81.39.56.89,1.02,1.48,1.35.59.36,1.31.56,2.17.56,1.28,0,2.3-.36,3.02-1.02.72-.69,1.22-1.58,1.51-2.69h1.77c-.39,1.64-1.08,2.92-2.07,3.81s-2.4,1.35-4.24,1.35c-1.15,0-2.14-.2-2.96-.59-.85-.43-1.51-.95-2.04-1.68-.53-.69-.92-1.51-1.15-2.43-.26-.92-.39-1.91-.39-2.92,0-.95.13-1.91.39-2.79.23-.92.62-1.74,1.15-2.46s1.18-1.31,2.04-1.74c.82-.43,1.81-.66,2.96-.66s2.14.23,2.96.69c.82.49,1.51,1.08,2,1.84.53.76.89,1.64,1.12,2.63.23.95.33,1.97.26,2.96h-11.11c0,.66.07,1.31.26,2ZM363.46,169.82c-.2-.59-.53-1.15-.92-1.64-.39-.46-.85-.85-1.41-1.15-.56-.26-1.22-.43-1.91-.43s-1.38.16-1.94.43c-.56.3-1.05.69-1.45,1.15-.39.49-.69,1.05-.92,1.68s-.39,1.25-.46,1.91h9.37c-.03-.66-.13-1.31-.36-1.94Z"/>
  </g>
</svg>